<?xml version="1.0" ?><svg viewBox="0 0 32 32" xmlns="http://www.w3.org/2000/svg"><defs><style>.cls-1{fill:#d8e1ef;}.cls-2{fill:#0593ff;}.cls-3{fill:#0e6ae0;}</style></defs><title/><g id="Browser"><rect class="cls-1" height="24" rx="4" ry="4" width="28" x="2" y="4"/><path class="cls-2" d="M30,8v2H2V8A4,4,0,0,1,6,4H26A4,4,0,0,1,30,8Z"/><path class="cls-2" d="M24,16H8a1,1,0,0,1,0-2H24a1,1,0,0,1,0,2Z"/><path class="cls-2" d="M24,20H8a1,1,0,0,1,0-2H24a1,1,0,0,1,0,2Z"/><path class="cls-2" d="M15,24H8a1,1,0,0,1,0-2h7a1,1,0,0,1,0,2Z"/><circle class="cls-3" cx="13" cy="7" r="1"/><circle class="cls-3" cx="10" cy="7" r="1"/><circle class="cls-3" cx="7" cy="7" r="1"/></g></svg>